<svg width="24" height="24" viewBox="0 0 24 24" fill="none" xmlns="http://www.w3.org/2000/svg">
<path fill-rule="evenodd" clip-rule="evenodd" d="M13.2001 1.65C12.4889 1.11667 11.5112 1.11667 10.8001 1.65L1.40006 8.7C0.958231 9.03137 0.868688 9.65817 1.20006 10.1C1.53143 10.5418 2.15823 10.6314 2.60006 10.3L3.00006 10V19C3.00006 20.6569 4.3432 22 6.00006 22H18.0001C19.6569 22 21.0001 20.6569 21.0001 19V10L21.4001 10.3C21.8419 10.6314 22.4687 10.5418 22.8001 10.1C23.1314 9.65817 23.0419 9.03137 22.6001 8.7L13.2001 1.65ZM16 20H18.0001C18.5523 20 19.0001 19.5523 19.0001 19V8.5L12.0001 3.25L5.00006 8.5V19C5.00006 19.5523 5.44777 20 6.00006 20H8V13C8 11.8954 8.89543 11 10 11H14C15.1046 11 16 11.8954 16 13V20ZM10 20H14V13H10V20Z" fill="#1D2939"/>
</svg>
