<svg width="24" height="24" viewBox="0 0 24 24" fill="none" xmlns="http://www.w3.org/2000/svg">
<path fill-rule="evenodd" clip-rule="evenodd" d="M13.8333 3C17.7914 3 21 6.20863 21 10.1667C21 14.1247 17.7914 17.3333 13.8333 17.3333C9.87529 17.3333 6.66667 14.1247 6.66667 10.1667C6.66667 6.20863 9.87529 3 13.8333 3ZM23 10.1667C23 5.10406 18.8959 1 13.8333 1C8.77072 1 4.66667 5.10406 4.66667 10.1667C4.66667 12.3377 5.42141 14.3325 6.68282 15.9029L1.29289 21.2929C0.902367 21.6834 0.902372 22.3166 1.2929 22.7071C1.68343 23.0976 2.31659 23.0976 2.70711 22.7071L8.09702 17.3171C9.66745 18.5786 11.6622 19.3333 13.8333 19.3333C18.8959 19.3333 23 15.2293 23 10.1667Z" fill="#0E9655"/>
</svg>
