<svg width="150" height="18" viewBox="0 0 150 18" fill="none" xmlns="http://www.w3.org/2000/svg">
<path d="M13.7525 2.66351H8.29765V17.8054H5.46697V2.66351H0V0.291892H13.7525V2.66351Z" fill="#1D2939"/>
<path d="M15.787 7.69865C16.1758 6.91216 16.6455 6.29595 17.1963 5.85C17.747 5.39595 18.4071 5.16892 19.1765 5.16892C19.4438 5.16892 19.6949 5.20135 19.9298 5.26622C20.1646 5.32297 20.3752 5.41216 20.5615 5.53378L20.3793 7.50405C20.3469 7.64189 20.2942 7.73919 20.2213 7.79595C20.1565 7.84459 20.0675 7.86892 19.9541 7.86892C19.8326 7.86892 19.6584 7.84865 19.4317 7.80811C19.2049 7.75946 18.966 7.73513 18.7149 7.73513C18.3504 7.73513 18.0264 7.78784 17.743 7.89324C17.4676 7.99865 17.2165 8.1527 16.9897 8.35541C16.7711 8.55811 16.5767 8.8054 16.4066 9.0973C16.2365 9.38919 16.0786 9.72162 15.9328 10.0946V17.8054H13.3208V5.4H14.8394C15.1148 5.4 15.3051 5.4527 15.4104 5.55811C15.5157 5.6554 15.5886 5.82973 15.6291 6.08108L15.787 7.69865Z" fill="#1D2939"/>
<path d="M28.9036 12.3811C27.9722 12.4135 27.1865 12.4905 26.5467 12.6122C25.9069 12.7257 25.3885 12.8757 24.9916 13.0622C24.5948 13.2405 24.3073 13.4554 24.1291 13.7068C23.959 13.9581 23.874 14.2338 23.874 14.5338C23.874 14.8257 23.9185 15.077 24.0076 15.2878C24.1048 15.4905 24.2344 15.6608 24.3964 15.7986C24.5664 15.9284 24.7608 16.0257 24.9795 16.0905C25.2063 16.1473 25.4533 16.1757 25.7206 16.1757C26.4009 16.1757 26.9841 16.05 27.47 15.7986C27.9641 15.5392 28.4419 15.1662 28.9036 14.6797V12.3811ZM21.9787 7.12703C23.3799 5.82162 25.0483 5.16892 26.9841 5.16892C27.6968 5.16892 28.3285 5.28649 28.8793 5.52162C29.4381 5.74865 29.9038 6.07297 30.2764 6.49459C30.657 6.91622 30.9446 7.41892 31.139 8.0027C31.3414 8.57838 31.4427 9.21892 31.4427 9.92432V17.8054H30.2764C30.0253 17.8054 29.835 17.7689 29.7054 17.6959C29.5758 17.6149 29.4665 17.4568 29.3774 17.2216L29.1222 16.2122C28.8064 16.4959 28.4946 16.7514 28.1868 16.9784C27.879 17.1973 27.5591 17.3838 27.227 17.5378C26.9031 17.6919 26.5507 17.8054 26.1701 17.8784C25.7975 17.9595 25.3845 18 24.9309 18C24.4288 18 23.959 17.9311 23.5216 17.7932C23.0924 17.6554 22.7198 17.4486 22.4039 17.173C22.0881 16.8892 21.837 16.5405 21.6507 16.127C21.4725 15.7135 21.3834 15.227 21.3834 14.6676C21.3834 14.1892 21.509 13.723 21.7601 13.2689C22.0192 12.8149 22.4404 12.4095 23.0235 12.0527C23.6148 11.6878 24.3883 11.3878 25.344 11.1527C26.3078 10.9176 27.4943 10.7838 28.9036 10.7514V9.92432C28.9036 9.03243 28.7132 8.36757 28.3326 7.92973C27.9519 7.49189 27.3931 7.27297 26.656 7.27297C26.1539 7.27297 25.7327 7.33784 25.3926 7.46757C25.0524 7.58919 24.7568 7.72297 24.5057 7.86892C24.2546 8.01486 24.0319 8.1527 23.8375 8.28243C23.6431 8.40405 23.4366 8.46487 23.2179 8.46487C23.0397 8.46487 22.8859 8.42027 22.7563 8.33108C22.6348 8.23378 22.5335 8.11622 22.4525 7.97838L21.9787 7.12703Z" fill="#1D2939"/>
<path d="M37.1266 7.04189C37.3939 6.76622 37.6693 6.51892 37.9527 6.3C38.2443 6.07297 38.5521 5.87838 38.876 5.71622C39.2 5.55405 39.5442 5.42838 39.9087 5.33919C40.2732 5.25 40.67 5.20541 41.0993 5.20541C41.7796 5.20541 42.3749 5.31892 42.8852 5.54595C43.4035 5.77297 43.8368 6.09324 44.1851 6.50676C44.5414 6.92027 44.8087 7.41892 44.9869 8.0027C45.1651 8.57838 45.2542 9.21486 45.2542 9.91216V17.8054H42.6543V9.91216C42.6543 9.07703 42.4599 8.42838 42.0712 7.96622C41.6905 7.50405 41.1074 7.27297 40.3218 7.27297C39.7386 7.27297 39.196 7.40676 38.6938 7.67432C38.1998 7.94189 37.7341 8.30676 37.2967 8.76892V17.8054H34.6847V5.4H36.264C36.6204 5.4 36.8472 5.56622 36.9444 5.89865L37.1266 7.04189Z" fill="#1D2939"/>
<path d="M55.8855 7.65C55.8207 7.76351 55.7479 7.84459 55.6669 7.89324C55.5859 7.94189 55.4846 7.96622 55.3631 7.96622C55.2254 7.96622 55.0756 7.92568 54.9136 7.84459C54.7516 7.7554 54.5613 7.65811 54.3426 7.5527C54.124 7.4473 53.8648 7.35405 53.5651 7.27297C53.2735 7.18378 52.9293 7.13919 52.5325 7.13919C52.2085 7.13919 51.9129 7.17973 51.6456 7.26081C51.3864 7.33378 51.1637 7.44324 50.9774 7.58919C50.7992 7.72703 50.6615 7.89324 50.5644 8.08784C50.4672 8.27432 50.4186 8.47703 50.4186 8.69595C50.4186 8.98784 50.5077 9.23108 50.6858 9.42568C50.864 9.62027 51.0989 9.79054 51.3905 9.93649C51.682 10.0743 52.0141 10.2 52.3867 10.3135C52.7592 10.427 53.1399 10.5486 53.5287 10.6784C53.9174 10.8081 54.2981 10.9581 54.6707 11.1284C55.0432 11.2986 55.3753 11.5095 55.6669 11.7608C55.9584 12.0041 56.1933 12.3041 56.3715 12.6608C56.5497 13.0095 56.6388 13.4351 56.6388 13.9378C56.6388 14.5216 56.5335 15.0608 56.3229 15.5554C56.1123 16.05 55.8045 16.4797 55.3996 16.8446C54.9946 17.2095 54.4884 17.4932 53.881 17.6959C53.2816 17.8986 52.5932 18 51.8157 18C51.3864 18 50.9693 17.9595 50.5644 17.8784C50.1675 17.8054 49.7868 17.7041 49.4224 17.5743C49.066 17.4365 48.7299 17.2743 48.414 17.0878C48.1062 16.9014 47.8309 16.6986 47.5879 16.4797L48.1953 15.4824C48.2682 15.3608 48.3573 15.2676 48.4626 15.2027C48.576 15.1297 48.7137 15.0932 48.8757 15.0932C49.0457 15.0932 49.2118 15.15 49.3738 15.2635C49.5438 15.3689 49.7382 15.4865 49.9569 15.6162C50.1837 15.7459 50.455 15.8676 50.7709 15.9811C51.0868 16.0865 51.4796 16.1392 51.9493 16.1392C52.3381 16.1392 52.6742 16.0946 52.9577 16.0054C53.2411 15.9081 53.476 15.7784 53.6623 15.6162C53.8486 15.4541 53.9863 15.2716 54.0754 15.0689C54.1645 14.8581 54.209 14.6351 54.209 14.4C54.209 14.0838 54.1199 13.8243 53.9417 13.6216C53.7635 13.4189 53.5246 13.2446 53.2249 13.0986C52.9334 12.9527 52.5973 12.823 52.2166 12.7095C51.844 12.5959 51.4634 12.4743 51.0746 12.3446C50.6858 12.2149 50.3011 12.0649 49.9205 11.8946C49.5479 11.7243 49.2118 11.5095 48.9121 11.25C48.6205 10.9824 48.3857 10.6622 48.2075 10.2892C48.0293 9.90811 47.9402 9.44595 47.9402 8.9027C47.9402 8.40811 48.0374 7.93784 48.2318 7.49189C48.4343 7.04595 48.7258 6.6527 49.1065 6.31216C49.4953 5.97162 49.9691 5.70405 50.5279 5.50946C51.0949 5.30676 51.7468 5.20541 52.4839 5.20541C53.3181 5.20541 54.0754 5.33919 54.7557 5.60676C55.436 5.87432 56.007 6.23919 56.4687 6.70135L55.8855 7.65Z" fill="#1D2939"/>
<path d="M60.1139 17.8054V7.47973L58.899 7.30946C58.6965 7.26892 58.5305 7.19595 58.4009 7.09054C58.2794 6.98514 58.2187 6.83513 58.2187 6.64054V5.57027H60.1139V4.52432C60.1139 3.81892 60.2151 3.18649 60.4176 2.62703C60.6282 2.06757 60.9238 1.59324 61.3045 1.20405C61.6932 0.814865 62.163 0.518919 62.7137 0.316216C63.2645 0.105405 63.8841 0 64.5725 0C64.856 0 65.1233 0.0202698 65.3743 0.0608103C65.6335 0.101351 65.8846 0.162162 66.1276 0.243243L66.079 1.55676C66.0628 1.77568 65.9534 1.90541 65.751 1.94595C65.5566 1.98649 65.3095 2.00676 65.0099 2.00676C64.6454 2.00676 64.3174 2.05135 64.0258 2.14054C63.7342 2.22162 63.4832 2.36351 63.2726 2.56622C63.0701 2.76892 62.9122 3.03649 62.7988 3.36892C62.6935 3.70135 62.6409 4.11486 62.6409 4.60946V5.57027H66.0304V7.45541H62.7259V17.8054H60.1139Z" fill="#1D2939"/>
<path d="M75.8428 10.2041C75.8428 9.76622 75.778 9.36081 75.6484 8.98784C75.527 8.60676 75.3447 8.27838 75.1018 8.0027C74.8588 7.71892 74.5551 7.5 74.1906 7.34595C73.8342 7.18378 73.4212 7.1027 72.9514 7.1027C72.0038 7.1027 71.2587 7.37432 70.716 7.91757C70.1734 8.46081 69.8292 9.22297 69.6834 10.2041H75.8428ZM69.6105 11.8095C69.6429 12.5149 69.7522 13.127 69.9385 13.6459C70.1248 14.1568 70.3718 14.5824 70.6796 14.923C70.9955 15.2635 71.368 15.5189 71.7973 15.6892C72.2346 15.8514 72.7206 15.9324 73.2551 15.9324C73.7654 15.9324 74.2068 15.8757 74.5793 15.7622C74.9519 15.6405 75.2759 15.5108 75.5513 15.373C75.8266 15.227 76.0615 15.0973 76.2559 14.9838C76.4503 14.8622 76.6284 14.8014 76.7904 14.8014C77.001 14.8014 77.163 14.8824 77.2764 15.0446L78.0175 16.0054C77.7097 16.3703 77.3614 16.6784 76.9727 16.9297C76.5839 17.1811 76.1708 17.3878 75.7335 17.55C75.2961 17.7041 74.8466 17.8135 74.385 17.8784C73.9233 17.9514 73.4738 17.9878 73.0365 17.9878C72.1779 17.9878 71.3802 17.8459 70.6431 17.5622C69.9142 17.2703 69.2784 16.8446 68.7358 16.2851C68.2012 15.7257 67.7801 15.0324 67.4723 14.2054C67.1726 13.3784 67.0228 12.4257 67.0228 11.3473C67.0228 10.4878 67.1564 9.68513 67.4237 8.93919C67.6991 8.19324 68.0878 7.54459 68.59 6.99324C69.1002 6.44189 69.7158 6.00811 70.4366 5.69189C71.1655 5.36757 71.9876 5.20541 72.9028 5.20541C73.6641 5.20541 74.3688 5.33108 75.0167 5.58243C75.6646 5.82568 76.2235 6.18649 76.6932 6.66486C77.163 7.14324 77.5275 7.73108 77.7866 8.42838C78.0539 9.11757 78.1876 9.90405 78.1876 10.7878C78.1876 11.1932 78.143 11.4649 78.0539 11.6027C77.9648 11.7405 77.8028 11.8095 77.568 11.8095H69.6105Z" fill="#1D2939"/>
<path d="M83.2718 7.69865C83.6606 6.91216 84.1304 6.29595 84.6811 5.85C85.2318 5.39595 85.8919 5.16892 86.6614 5.16892C86.9286 5.16892 87.1797 5.20135 87.4146 5.26622C87.6495 5.32297 87.86 5.41216 88.0463 5.53378L87.8641 7.50405C87.8317 7.64189 87.779 7.73919 87.7062 7.79595C87.6414 7.84459 87.5523 7.86892 87.4389 7.86892C87.3174 7.86892 87.1433 7.84865 86.9165 7.80811C86.6897 7.75946 86.4508 7.73513 86.1997 7.73513C85.8352 7.73513 85.5113 7.78784 85.2278 7.89324C84.9524 7.99865 84.7013 8.1527 84.4746 8.35541C84.2559 8.55811 84.0615 8.8054 83.8914 9.0973C83.7213 9.38919 83.5634 9.72162 83.4176 10.0946V17.8054H80.8056V5.4H82.3242C82.5996 5.4 82.7899 5.4527 82.8952 5.55811C83.0005 5.6554 83.0734 5.82973 83.1139 6.08108L83.2718 7.69865Z" fill="#1D2939"/>
<path d="M95.5213 8.68376C96.1693 8.68376 96.7362 8.60673 97.2222 8.45268C97.7081 8.29052 98.1131 8.06755 98.437 7.78376C98.761 7.49998 99.004 7.16349 99.166 6.7743C99.328 6.37701 99.4089 5.93917 99.4089 5.46079C99.4089 4.50403 99.0931 3.7743 98.4613 3.2716C97.8296 2.7689 96.8739 2.51754 95.5942 2.51754H93.2859V8.68376H95.5213ZM103.758 17.8054H101.219C100.717 17.8054 100.353 17.6108 100.126 17.2216L96.0437 11.323C95.906 11.1202 95.7562 10.9743 95.5942 10.8851C95.4322 10.7959 95.1893 10.7513 94.8653 10.7513H93.2859V17.8054H90.4431V0.29187H95.5942C96.7443 0.29187 97.7324 0.409438 98.5585 0.644573C99.3928 0.879708 100.077 1.21619 100.612 1.65403C101.146 2.08376 101.539 2.60268 101.79 3.21079C102.049 3.8189 102.179 4.49592 102.179 5.24187C102.179 5.84998 102.086 6.41754 101.899 6.94457C101.721 7.4716 101.458 7.94998 101.11 8.37971C100.77 8.80944 100.348 9.18241 99.8463 9.49863C99.3442 9.81484 98.7732 10.0621 98.1333 10.2405C98.4816 10.4513 98.7813 10.7473 99.0323 11.1284L103.758 17.8054Z" fill="#0E9655"/>
<path d="M110.114 5.20538C111.029 5.20538 111.855 5.35538 112.592 5.65538C113.337 5.95538 113.969 6.38106 114.487 6.93241C115.014 7.48376 115.419 8.15268 115.702 8.93917C115.986 9.72565 116.127 10.6094 116.127 11.5905C116.127 12.5716 115.986 13.4554 115.702 14.2419C115.419 15.0284 115.014 15.7013 114.487 16.2608C113.969 16.8121 113.337 17.2378 112.592 17.5378C111.855 17.8378 111.029 17.9878 110.114 17.9878C109.19 17.9878 108.356 17.8378 107.611 17.5378C106.874 17.2378 106.242 16.8121 105.716 16.2608C105.189 15.7013 104.784 15.0284 104.501 14.2419C104.217 13.4554 104.076 12.5716 104.076 11.5905C104.076 10.6094 104.217 9.72565 104.501 8.93917C104.784 8.15268 105.189 7.48376 105.716 6.93241C106.242 6.38106 106.874 5.95538 107.611 5.65538C108.356 5.35538 109.19 5.20538 110.114 5.20538ZM110.114 15.9446C111.231 15.9446 112.061 15.5716 112.604 14.8257C113.155 14.0716 113.43 12.9973 113.43 11.6027C113.43 10.2081 113.155 9.13376 112.604 8.37971C112.061 7.61755 111.231 7.23647 110.114 7.23647C108.98 7.23647 108.137 7.61755 107.587 8.37971C107.036 9.13376 106.761 10.2081 106.761 11.6027C106.761 12.9973 107.036 14.0716 107.587 14.8257C108.137 15.5716 108.98 15.9446 110.114 15.9446Z" fill="#0E9655"/>
<path d="M124.177 5.20538C125.092 5.20538 125.918 5.35538 126.655 5.65538C127.4 5.95538 128.032 6.38106 128.55 6.93241C129.077 7.48376 129.482 8.15268 129.765 8.93917C130.049 9.72565 130.19 10.6094 130.19 11.5905C130.19 12.5716 130.049 13.4554 129.765 14.2419C129.482 15.0284 129.077 15.7013 128.55 16.2608C128.032 16.8121 127.4 17.2378 126.655 17.5378C125.918 17.8378 125.092 17.9878 124.177 17.9878C123.253 17.9878 122.419 17.8378 121.674 17.5378C120.937 17.2378 120.305 16.8121 119.779 16.2608C119.252 15.7013 118.848 15.0284 118.564 14.2419C118.281 13.4554 118.139 12.5716 118.139 11.5905C118.139 10.6094 118.281 9.72565 118.564 8.93917C118.848 8.15268 119.252 7.48376 119.779 6.93241C120.305 6.38106 120.937 5.95538 121.674 5.65538C122.419 5.35538 123.253 5.20538 124.177 5.20538ZM124.177 15.9446C125.294 15.9446 126.125 15.5716 126.667 14.8257C127.218 14.0716 127.493 12.9973 127.493 11.6027C127.493 10.2081 127.218 9.13376 126.667 8.37971C126.125 7.61755 125.294 7.23647 124.177 7.23647C123.043 7.23647 122.201 7.61755 121.65 8.37971C121.099 9.13376 120.824 10.2081 120.824 11.6027C120.824 12.9973 121.099 14.0716 121.65 14.8257C122.201 15.5716 123.043 15.9446 124.177 15.9446Z" fill="#0E9655"/>
<path d="M132.882 17.8054V5.39998H134.462C134.818 5.39998 135.045 5.56619 135.142 5.89863L135.312 6.98106C135.539 6.7216 135.774 6.48646 136.017 6.27565C136.26 6.05673 136.519 5.87025 136.794 5.71619C137.078 5.55403 137.377 5.42836 137.693 5.33917C138.017 5.24998 138.366 5.20538 138.738 5.20538C139.135 5.20538 139.499 5.26214 139.831 5.37565C140.164 5.48917 140.455 5.65133 140.706 5.86214C140.965 6.07295 141.188 6.32836 141.374 6.62836C141.561 6.92836 141.715 7.26484 141.836 7.63782C142.022 7.20809 142.257 6.83917 142.541 6.53106C142.824 6.22295 143.14 5.9716 143.488 5.77701C143.837 5.58241 144.205 5.44052 144.594 5.35133C144.991 5.25403 145.392 5.20538 145.797 5.20538C146.461 5.20538 147.052 5.31079 147.57 5.5216C148.097 5.73241 148.538 6.04052 148.895 6.44592C149.259 6.84322 149.534 7.33376 149.721 7.91755C149.907 8.50133 150 9.16619 150 9.91214V17.8054H147.388V9.91214C147.388 9.03646 147.198 8.37971 146.817 7.94187C146.444 7.49592 145.89 7.27295 145.153 7.27295C144.821 7.27295 144.509 7.32971 144.217 7.44322C143.926 7.55673 143.671 7.72295 143.452 7.94187C143.233 8.16079 143.059 8.43646 142.929 8.7689C142.808 9.09322 142.747 9.4743 142.747 9.91214V17.8054H140.135V9.91214C140.135 9.00403 139.953 8.33917 139.589 7.91755C139.224 7.48782 138.69 7.27295 137.985 7.27295C137.499 7.27295 137.049 7.39863 136.636 7.64998C136.223 7.89322 135.843 8.22971 135.494 8.65944V17.8054H132.882Z" fill="#0E9655"/>
</svg>
